<?xml version="1.0" standalone="no"?><!DOCTYPE svg PUBLIC "-//W3C//DTD SVG 1.1//EN" "http://www.w3.org/Graphics/SVG/1.1/DTD/svg11.dtd"><svg t="1521786444410" class="icon" style="" viewBox="0 0 1024 1024" version="1.1" xmlns="http://www.w3.org/2000/svg" p-id="5693" xmlns:xlink="http://www.w3.org/1999/xlink" width="200" height="200"><defs><style type="text/css"></style></defs><path d="M101.77536 13.14816c-21.61664 4.59776-44.42112 17.21344-61.0304 33.61792C24.33024 63.1808 16.92672 76.77952 12.12416 99.79904c-3.39968 17.00864-1.9968 43.22304 2.60096 49.42848 2.60096 3.60448 3.20512 3.60448 21.41184 0 10.20928-1.9968 20.00896-4.4032 21.61664-5.20192 2.2016-1.40288 3.00032-6.20544 3.00032-22.41536 0-19.01568 0.39936-21.41184 6.00064-31.62112 11.20256-20.21376 35.2256-33.21856 59.0336-31.41632 15.01184 1.00352 23.00928 4.4032 33.21856 14.80704 12.41088 12.41088 15.81056 22.41536 15.60576 46.62272-0.2048 19.01568-1.40288 25.61024-12.60544 69.03808-15.60576 60.23168-15.81056 67.44064-4.80256 97.25952 6.20544 16.20992 8.8064 21.01248 12.01152 21.41184 5.40672 0.79872 40.62208-13.40416 42.02496-16.81408 0.60416-1.59744-1.80224-10.40384-5.20192-19.8144-7.40352-20.80768-7.80288-31.41632-1.59744-56.03328l4.608-18.01216 17.00864-14.61248c62.83264-54.43584 138.28096-90.25536 219.92448-104.45824 31.62112-5.40672 88.24832-7.40352 120.2688-4.1984 105.66656 11.008 199.31136 55.42912 273.96096 130.27328C948.45952 312.12544 993.4848 462.20288 963.072 613.69344c-24.2176 121.87648-102.8608 231.53664-212.3264 296.76544-138.88512 82.64704-318.57664 82.64704-457.46176 0-64.63488-38.42048-121.06752-94.85312-159.488-159.488-72.0384-120.86272-82.04288-272.55808-26.81856-404.23424 4.80256-11.60192 8.8064-24.2176 8.8064-27.81184 0-9.40032-8.40704-18.81088-17.00864-18.81088-15.4112 0-19.8144 5.40672-34.62144 43.02848C32.13312 423.9872 22.528 518.84032 37.53984 605.89056c25.81504 148.28544 116.86912 275.3536 249.344 347.99616 145.28512 79.84128 324.98688 79.84128 470.272 0 185.10848-101.45792 285.35808-308.5824 249.344-515.09248-35.81952-205.5168-195.51232-365.2096-400.82432-401.02912-126.47424-22.016-260.352 7.80288-364.81024 81.0496-6.6048 4.80256-12.81024 9.00096-14.00832 9.60512-1.19808 0.79872-1.80224-4.1984-1.40288-14.00832 2.2016-48.42496-31.22176-92.65152-77.24032-102.25664-13.81376-2.80576-30.22848-2.6112-46.4384 0.99328z" p-id="5694"></path><path d="M430.36672 178.04288c-41.82016 11.008-79.24736 45.42464-104.45824 96.0512-9.80992 19.21024-10.20928 27.41248-2.4064 36.02432 4.00384 4.59776 7.20896 6.20544 12.81024 6.4 10.40384 0.39936 17.21344-5.00736 22.81472-17.80736 14.21312-32.02048 42.02496-63.83616 65.6384-74.84416 26.01984-12.20608 51.23072-11.40736 79.04256 2.60096 20.00896 10.00448 26.81856 10.20928 34.816 1.59744 3.79904-4.4032 5.40672-8.20224 5.40672-13.60896 0-10.00448-8.00768-18.20672-26.81856-27.41248-26.2144-13.0048-58.8288-16.40448-86.84544-9.00096zM698.12224 177.03936c-17.00864 3.79904-44.83072 17.6128-49.62304 24.61696-7.80288 11.20256-6.6048 23.21408 3.00032 29.41952 8.00768 5.40672 16.80384 4.4032 28.2112-2.60096 13.60896-8.40704 29.61408-12.81024 46.42816-12.81024 27.82208 0 49.62304 11.20256 73.04192 37.0176 15.2064 16.81408 22.81472 21.01248 32.02048 17.408 14.00832-5.40672 16.81408-19.6096 6.79936-34.62144-8.00768-12.01152-32.21504-34.62144-46.42816-43.02848-26.61376-15.99488-63.63136-22.20032-93.45024-15.40096zM452.57728 298.11712c-14.20288 3.20512-28.01664 19.01568-36.82304 42.02496-6.00064 15.2064-7.40352 48.0256-3.00032 66.64192 16.00512 68.03456 74.4448 71.63904 94.0544 5.60128 17.00864-57.64096-14.20288-123.27936-54.23104-114.26816zM740.54656 298.31168c-16.60928 3.39968-31.22176 20.21376-38.62528 43.8272-17.408 56.03328 9.60512 121.27232 48.62976 117.66784 47.43168-4.59776 65.03424-101.66272 26.4192-147.48672-9.0112-10.8032-24.2176-16.60928-36.42368-14.00832zM206.4384 343.33696c-18.81088 7.60832-22.60992 10.00448-22.60992 13.40416 0 6.4 18.41152 51.63008 21.41184 52.82816 3.00032 1.19808 44.22656-14.61248 48.2304-18.41152 2.2016-1.9968 0.60416-7.40352-8.00768-29.21472-6.4-15.60576-12.01152-27.01312-13.80352-27.21792-1.41312-0.19456-13.01504 3.61472-25.22112 8.61184zM681.1136 587.27424c-41.02144 4.4032-67.04128 9.80992-102.46144 21.01248-54.8352 17.408-99.86048 44.42112-134.07232 80.8448-19.41504 20.61312-26.01984 32.41984-23.40864 42.82368 2.39616 9.20576 10.40384 15.2064 20.21376 14.80704 6.6048-0.2048 8.8064-1.59744 15.60576-9.80992 36.42368-43.6224 76.04224-70.44096 133.07904-89.4464 37.41696-12.60544 70.0416-17.80736 142.68416-22.81472 21.61664-1.59744 24.2176-2.2016 28.81536-6.79936 7.80288-7.80288 7.19872-20.40832-1.19808-28.01664-6.20544-5.60128-6.4-5.60128-31.81568-5.40672-14.0288 0.2048-35.23584 1.41312-47.44192 2.80576z" p-id="5695"></path></svg>