<?xml version="1.0" standalone="no"?><!DOCTYPE svg PUBLIC "-//W3C//DTD SVG 1.1//EN" "http://www.w3.org/Graphics/SVG/1.1/DTD/svg11.dtd"><svg t="1516182174753" class="icon" style="" viewBox="0 0 1024 1024" version="1.1" xmlns="http://www.w3.org/2000/svg" p-id="5146" xmlns:xlink="http://www.w3.org/1999/xlink" width="200" height="200"><defs><style type="text/css"></style></defs><path d="M716.83006 207.548225a28.627341 28.627341 0 0 0-28.627342-23.47442H335.227599a28.627341 28.627341 0 0 0-28.627341 23.47442l-5.725468 30.344982a28.627341 28.627341 0 0 0 7.443108 23.47442 28.627341 28.627341 0 0 0 22.043053 10.592116h364.139782a28.627341 28.627341 0 0 0 22.043053-10.592116 28.627341 28.627341 0 0 0 6.011742-23.47442zM802.712084 610.048644l-242.187308-156.305284a89.603578 89.603578 0 0 0-96.760414 0L222.435874 609.476097a88.744758 88.744758 0 0 0-39.505731 92.466313l38.933185 198.387475a28.627341 28.627341 0 0 0 18.894045 21.470506 78.438915 78.438915 0 0 1 36.642997 26.050881 28.627341 28.627341 0 0 0 37.501817 7.156835 45.231199 45.231199 0 0 1 22.043053-6.011741 45.803746 45.803746 0 0 1 45.803746 45.803746 28.627341 28.627341 0 0 0 28.627341 28.627341h200.39139a28.627341 28.627341 0 0 0 28.627341-28.627341 45.803746 45.803746 0 0 1 45.803746-45.803746 44.944926 44.944926 0 0 1 22.901873 6.011741 28.627341 28.627341 0 0 0 37.501818-7.156835 79.297736 79.297736 0 0 1 36.92927-26.050881 28.627341 28.627341 0 0 0 18.607772-21.470506l38.933184-197.814928a89.031032 89.031032 0 0 0-38.360637-92.466313z" fill="#FFC824" p-id="5147"></path><path d="M367.290222 578.272295a28.627341 28.627341 0 0 1-15.458765-52.674308l111.646632-72.1409a89.603578 89.603578 0 0 1 96.760413 0l28.627342 17.748952a28.627341 28.627341 0 0 1-30.917529 48.093933l-28.627341-17.462678a32.062622 32.062622 0 0 0-34.925357 0L382.748986 572.546827a28.627341 28.627341 0 0 1-15.458764 5.725468zM678.469422 592.299692a28.627341 28.627341 0 0 1-15.458764-4.580374l-14.599944-9.160749A28.627341 28.627341 0 1 1 680.473336 530.178362l14.313671 9.447022a28.627341 28.627341 0 0 1-15.458765 52.674308z" fill="#6B400D" p-id="5148"></path><path d="M511.858295 82.16047V21.470506" fill="#FFFFFF" p-id="5149"></path><path d="M811.014013 858.82024l47.80766-242.759854a28.627341 28.627341 0 1 0-57.254683-11.164663l-52.388035 267.379368a137.124965 137.124965 0 0 0-32.062622 22.329326h-2.003914l-9.447023-2.003914h-4.866648a124.815208 124.815208 0 0 0-14.599944 0 106.207436 106.207436 0 0 0-19.180318 1.717641l-6.011742 1.71764a96.760414 96.760414 0 0 0-12.023483 3.721555l-6.298016 2.57646c-3.721554 1.71764-7.156835 3.721554-10.592116 5.725469l-5.439195 3.721554a96.47414 96.47414 0 0 0-10.019569 8.301929l-4.007828 3.435281a132.54459 132.54459 0 0 0-11.73721 14.027397l-1.431367 2.862734a123.383841 123.383841 0 0 0-7.443109 13.454851 33.780263 33.780263 0 0 0-2.003914 5.725468 39.792004 39.792004 0 0 0-2.862734 7.443109h-151.152362c0-2.576461-2.003914-4.866648-2.862734-7.443109s0-4.007828-2.290188-5.725468a121.093654 121.093654 0 0 0-7.156835-13.454851l-1.71764-2.862734a129.395583 129.395583 0 0 0-11.450937-14.027397l-4.007828-3.435281-10.019569-8.301929-5.725468-3.721554-10.305843-5.725469-6.298015-2.57646a87.599665 87.599665 0 0 0-12.309757-3.721555l-5.725468-1.71764a106.207436 106.207436 0 0 0-19.180319-2.576461 126.246575 126.246575 0 0 0-14.886218 0h-4.580374l-9.16075 4.007828h-2.290187a137.124965 137.124965 0 0 0-32.062622-22.329326L213.847672 567.393906a32.635169 32.635169 0 0 1 15.172491-34.066537l220.716802-128.823036a122.811294 122.811294 0 0 1 124.528935 0l181.783617 106.207437h2.003914l6.298015 2.003914h11.450937l5.725468-2.290188a34.066536 34.066536 0 0 0 4.580375-2.290187 38.933184 38.933184 0 0 0 3.435281-3.435281 30.631255 30.631255 0 0 0 4.007827-4.580375v-3.721554a22.901873 22.901873 0 0 0 2.003914-5.725468 21.184233 21.184233 0 0 0 0-6.011742v-4.294101l-45.803746-242.759855a28.627341 28.627341 0 0 0-28.627341-23.188146h-6.584289l-26.05088-137.697512a28.627341 28.627341 0 0 0-28.627342-23.188147h-126.532849V21.470506a21.470506 21.470506 0 0 0-42.941012 0v32.348896H359.847113a28.627341 28.627341 0 0 0-28.627341 23.188146l-8.301929 42.941012a28.627341 28.627341 0 0 0 57.254682 10.592117l3.721555-19.466593h257.646072l19.466592 103.630976H299.157149a28.627341 28.627341 0 0 0-28.627341 23.188147l-43.227286 229.01873-28.627341 16.031312a89.889852 89.889852 0 0 0-42.654738 94.470226L212.988852 858.82024A135.121051 135.121051 0 0 0 79.299168 994.800112a28.627341 28.627341 0 0 0 57.254682 0A77.866368 77.866368 0 0 1 214.420219 916.074923a70.995807 70.995807 0 0 1 23.47442 4.294101h1.71764a93.325133 93.325133 0 0 1 16.890132 8.588203 28.627341 28.627341 0 0 0 44.944926 35.21163 43.799832 43.799832 0 0 1 12.309756-10.592117 45.231199 45.231199 0 0 1 23.188147-4.580374 45.803746 45.803746 0 0 1 45.803746 45.803746 28.627341 28.627341 0 0 0 28.627341 28.627341h200.39139a28.627341 28.627341 0 0 0 28.627341-28.627341 45.803746 45.803746 0 0 1 45.803746-45.803746 44.086106 44.086106 0 0 1 23.188147 6.298015 41.223372 41.223372 0 0 1 12.023483 10.305843 28.627341 28.627341 0 0 0 40.364551 3.721554A28.627341 28.627341 0 0 0 766.35536 930.388594a106.779983 106.779983 0 0 1 17.176405-8.588203h1.431367a74.144814 74.144814 0 0 1 23.760693-4.294101 77.866368 77.866368 0 0 1 77.866369 77.866369 28.627341 28.627341 0 0 0 57.254682 0A135.121051 135.121051 0 0 0 811.014013 858.82024zM322.631569 271.959743h378.453453l28.627341 157.736651-126.532849-74.717361a180.638524 180.638524 0 0 0-182.356164 0L293.145408 429.41012z" fill="#6B400D" p-id="5150"></path></svg>