<?xml version="1.0" standalone="no"?><!DOCTYPE svg PUBLIC "-//W3C//DTD SVG 1.1//EN" "http://www.w3.org/Graphics/SVG/1.1/DTD/svg11.dtd"><svg t="1516182142975" class="icon" style="" viewBox="0 0 1024 1024" version="1.1" xmlns="http://www.w3.org/2000/svg" p-id="3061" xmlns:xlink="http://www.w3.org/1999/xlink" width="200" height="200"><defs><style type="text/css"></style></defs><path d="M723.813699 642.454795l-14.869041-168.328768a168.328767 168.328767 0 0 0-168.328768-150.654246h-43.204383a168.328767 168.328767 0 0 0-168.328767 150.654246l-14.588493 168.328768-14.307946 179.550684a56.109589 56.109589 0 0 0 51.059726 33.665754h61.44v-65.087123a97.630685 97.630685 0 0 1 196.383562 0v65.087123h80.236712a56.109589 56.109589 0 0 0 51.059726-33.665754z m-172.817535-123.441096h-63.123287a56.109589 56.109589 0 0 1 0-112.219178h63.123287a56.109589 56.109589 0 0 1 0 112.219178z" fill="#FFC824" p-id="3062"></path><path d="M511.438904 911.780822a84.164384 84.164384 0 0 1-84.164383-84.164384v84.164384a84.164384 84.164384 0 0 0 168.328767 0v-84.164384a84.164384 84.164384 0 0 1-84.164384 84.164384z" fill="#FFC824" p-id="3063"></path><path d="M550.996164 547.068493h-63.123287a84.164384 84.164384 0 0 1 0-168.328767h63.123287a84.164384 84.164384 0 0 1 0 168.328767z m-63.123287-112.219178a28.054795 28.054795 0 0 0 0 56.109589h63.123287a28.054795 28.054795 0 0 0 0-56.109589z" fill="#6B400D" p-id="3064"></path><path d="M684.536986 28.054795l168.328767 0 0 140.273972-168.328767 0 0-140.273972Z" fill="#FFC824" p-id="3065"></path><path d="M338.62137 168.328767l-168.328767 0 0-140.273972 168.328767 0 0 140.273972Z" fill="#FFC824" p-id="3066"></path><path d="M635.160548 191.894795l64.526027-12.624658a94.825205 94.825205 0 0 0 56.109589 17.113425h28.054795a98.191781 98.191781 0 0 0 0-196.383562h-28.054795a98.191781 98.191781 0 0 0-98.19178 98.191781 90.05589 90.05589 0 0 0 5.330411 31.42137l-37.312877 7.294246A82.200548 82.200548 0 0 0 574.84274 168.328767l-34.787945 42.082192h-56.670685L448.035068 168.328767a82.200548 82.200548 0 0 0-49.656986-31.42137l-37.312877-7.294246A90.05589 90.05589 0 0 0 366.395616 98.191781 98.191781 98.191781 0 0 0 268.203836 0a28.054795 28.054795 0 0 0 0 56.109589A42.082192 42.082192 0 0 1 310.286027 98.191781a39.276712 39.276712 0 0 1-5.610959 20.48A41.240548 41.240548 0 0 1 268.203836 140.273973h-28.054795A42.082192 42.082192 0 0 1 198.066849 98.191781a28.054795 28.054795 0 0 0-56.109589 0A98.191781 98.191781 0 0 0 240.149041 196.383562h28.054795a94.825205 94.825205 0 0 0 56.109589-17.113425l64.526027 12.624658a28.054795 28.054795 0 0 1 16.552329 10.099726L422.505205 224.438356a191.333699 191.333699 0 0 0-62.281643 42.082192H228.085479a28.054795 28.054795 0 0 0 0 56.109589h92.019726a196.383562 196.383562 0 0 0-17.955068 64.245479L267.362192 792.547945a84.164384 84.164384 0 0 0 84.164383 91.178082h47.693151v28.054795a112.219178 112.219178 0 0 0 224.438356 0v-28.054795h64.24548a84.164384 84.164384 0 0 0 84.164383-91.178082l-35.068493-405.672329a193.85863 193.85863 0 0 0-17.955068-63.684383h76.028493a28.054795 28.054795 0 0 0 0-56.109589h-116.14685a196.383562 196.383562 0 0 0-75.186849-46.009863L618.888767 201.994521a28.054795 28.054795 0 0 1 16.271781-10.099726z m77.431233-93.703014a42.082192 42.082192 0 0 1 42.082192-42.082192h28.054794a42.082192 42.082192 0 0 1 0 84.164384h-28.054794a41.240548 41.240548 0 0 1-36.471233-21.602192 39.276712 39.276712 0 0 1-5.610959-20.48z m-145.043288 813.589041a56.109589 56.109589 0 0 1-112.219178 0v-112.219178a56.109589 56.109589 0 1 1 112.219178 0v112.219178z m112.219178-519.855343l34.787945 405.391781a28.054795 28.054795 0 0 1-7.294246 21.321644 28.054795 28.054795 0 0 1-20.48 8.977534h-63.123288v-28.054794a112.219178 112.219178 0 1 0-224.438356 0v28.054794H351.246027a28.054795 28.054795 0 0 1-28.054794-30.299178L357.979178 392.767123a140.273973 140.273973 0 0 1 140.273973-125.685479h44.046027A140.273973 140.273973 0 0 1 680.889863 392.767123z" fill="#6B400D" p-id="3067"></path></svg>