<?xml version="1.0" standalone="no"?><!DOCTYPE svg PUBLIC "-//W3C//DTD SVG 1.1//EN" "http://www.w3.org/Graphics/SVG/1.1/DTD/svg11.dtd"><svg t="1516182132365" class="icon" style="" viewBox="0 0 1024 1024" version="1.1" xmlns="http://www.w3.org/2000/svg" p-id="2428" xmlns:xlink="http://www.w3.org/1999/xlink" width="200" height="200"><defs><style type="text/css"></style></defs><path d="M253.772108 956.194595A62.823784 62.823784 0 0 0 312.167784 996.324324h399.636757a62.27027 62.27027 0 0 0 58.395675-40.406486l25.184865-65.037838 21.033514-53.690811a358.123243 358.123243 0 0 1-138.378379 27.675676H345.932108a359.783784 359.783784 0 0 1-138.378378-27.675676z" fill="#FFC824" p-id="2429"></path><path d="M292.241297 734.512432h439.48973" fill="#FFFFFF" p-id="2430"></path><path d="M438.092108 316.332973h147.788108a83.027027 83.027027 0 0 1 83.027027 83.027027H355.065081a83.027027 83.027027 0 0 1 83.027027-83.027027zM615.216432 548.531892l22.417298 185.98054H386.338595l22.417297-185.98054" fill="#FFC824" p-id="2431"></path><path d="M731.731027 706.836757h-69.742703l-19.372973-161.625946a27.675676 27.675676 0 1 0-55.351351 6.365405l18.542703 155.260541h-188.194595l18.542703-155.260541a27.675676 27.675676 0 1 0-55.351352-6.365405l-19.372973 161.625946h-69.189189a27.675676 27.675676 0 0 0 0 55.351351h439.48973a27.675676 27.675676 0 1 0 0-55.351351z" fill="#6B400D" p-id="2432"></path><path d="M449.162378 865.141622h125.647568" fill="#FFFFFF" p-id="2433"></path><path d="M574.809946 892.817297h-125.647568a27.675676 27.675676 0 0 1 0-55.351351h125.647568a27.675676 27.675676 0 1 1 0 55.351351zM668.907243 893.094054a27.675676 27.675676 0 0 1-10.516757-2.214054A29.336216 29.336216 0 0 1 650.364541 885.621622a27.675676 27.675676 0 0 1-8.025946-19.64973 23.247568 23.247568 0 0 1 2.214054-10.516757 27.675676 27.675676 0 0 1 5.811892-8.856216 27.675676 27.675676 0 0 1 30.166486-6.088649 27.675676 27.675676 0 0 1 9.132973 6.088649 27.675676 27.675676 0 0 1 8.025946 19.372973 27.675676 27.675676 0 0 1-8.025946 19.64973 27.675676 27.675676 0 0 1-20.756757 7.472432z" fill="#6B400D" p-id="2434"></path><path d="M355.065081 865.141622" fill="#FFFFFF" p-id="2435"></path><path d="M355.065081 893.094054a27.675676 27.675676 0 0 1-9.132973-2.214054 32.934054 32.934054 0 0 1-10.516757-5.258378 27.675676 27.675676 0 0 1-8.025946-19.64973 27.675676 27.675676 0 0 1 8.025946-19.372973 27.675676 27.675676 0 0 1 30.166487-6.088649 22.970811 22.970811 0 0 1 9.132973 6.088649 27.675676 27.675676 0 0 1 8.025946 19.372973 27.675676 27.675676 0 0 1-27.675676 27.675676z" fill="#6B400D" p-id="2436"></path><path d="M899.445622 33.487568a27.675676 27.675676 0 0 0-34.317838-20.203244A1487.844324 1487.844324 0 0 1 539.661838 55.351351a83.027027 83.027027 0 0 0-153.323243-5.535135A1554.819459 1554.819459 0 0 1 158.567784 13.007568 27.675676 27.675676 0 0 0 124.526703 33.764324a27.675676 27.675676 0 0 0 20.48 33.210811A1680.743784 1680.743784 0 0 0 381.910486 104.614054a83.027027 83.027027 0 0 0 114.023784 55.351351l61.44 79.705946-55.351351 50.36973h-63.930811a110.702703 110.702703 0 0 0-106.828108 83.027027h-10.793514A90.222703 90.222703 0 0 0 235.229405 434.784865l-73.063783 221.405405a218.361081 218.361081 0 0 0 2.767567 146.404325l62.823784 163.286486A90.776216 90.776216 0 0 0 312.167784 1024h399.636757a90.776216 90.776216 0 0 0 84.41081-58.118919l62.823784-163.286486a218.361081 218.361081 0 0 0 3.597838-144.743784l-73.063784-221.405406a90.222703 90.222703 0 0 0-86.071351-62.27027h-10.516757a110.702703 110.702703 0 0 0-107.104865-83.027027h-1.66054l29.336216-27.675676a27.675676 27.675676 0 0 0 3.321081-37.362162l-81.08973-106.274594A53.690811 53.690811 0 0 0 539.661838 110.702703a1519.948108 1519.948108 0 0 0 338.75027-43.727568A27.675676 27.675676 0 0 0 899.445622 33.487568z m-162.456217 418.456216l73.063784 222.789189a160.795676 160.795676 0 0 1-2.767567 107.381622l-62.823784 164.116756a35.424865 35.424865 0 0 1-32.657297 22.417298H312.167784a35.424865 35.424865 0 0 1-32.657298-22.417298l-62.823783-164.116756a160.795676 160.795676 0 0 1-2.767568-107.381622l73.063784-221.405405a35.148108 35.148108 0 0 1 33.487567-24.077838h383.031352a35.148108 35.148108 0 0 1 33.487567 22.694054z m-102.676756-79.429189H389.659676a55.351351 55.351351 0 0 1 48.432432-27.675676h147.788108a55.351351 55.351351 0 0 1 48.432433 27.675676zM434.217514 83.027027a27.675676 27.675676 0 1 1 27.675675 27.675676 27.675676 27.675676 0 0 1-27.675675-27.675676z" fill="#6B400D" p-id="2437"></path></svg>